<?xml version="1.0" encoding="UTF-8"?>
<svg version="1.1" xmlns="http://www.w3.org/2000/svg" width="327" height="250">
<path d="M0 0 C107.91 0 215.82 0 327 0 C327 82.5 327 165 327 250 C219.09 250 111.18 250 0 250 C0 167.5 0 85 0 0 Z " fill="#0065FD" transform="translate(0,0)"/>
<path d="M0 0 C45.87 0 91.74 0 139 0 C140 9 140 9 140 20 C121.85 20 103.7 20 85 20 C85 32.87 85 45.74 85 59 C104.47 59 123.94 59 144 59 C146.30067568 79.70608108 146.30067568 79.70608108 146.625 87.625 C146.66367188 88.45 146.70234375 89.275 146.7421875 90.125 C146.83326197 92.08310116 146.91749194 94.04151918 147 96 C147.60908203 95.98114746 148.21816406 95.96229492 148.84570312 95.94287109 C150.05129883 95.92087646 150.05129883 95.92087646 151.28125 95.8984375 C152.07595703 95.87958496 152.87066406 95.86073242 153.68945312 95.84130859 C157.39265208 96.09564918 159.3546699 97.4869364 162 100 C162.875 103.25 162.875 103.25 163 106 C160.125 106.1875 160.125 106.1875 157 106 C156.34 105.01 155.68 104.02 155 103 C151.43230448 102.26393501 151.43230448 102.26393501 148 102 C148 104.97 148 107.94 148 111 C148.97839844 111.12955078 148.97839844 111.12955078 149.9765625 111.26171875 C156.04714917 112.23766852 160.0089578 113.16873839 164 118 C165.09050793 122.20867906 164.49570761 125.12297884 162.375 128.875 C158.47974312 132.36022984 155.1521862 133 150 133 C150.06058594 133.69037354 150.12117187 134.38074707 150.18359375 135.09204102 C150.45883646 138.24859855 150.72945535 141.40553647 151 144.5625 C151.14308594 146.19155273 151.14308594 146.19155273 151.2890625 147.85351562 C151.37929687 148.91376953 151.46953125 149.97402344 151.5625 151.06640625 C151.64628906 152.03521729 151.73007813 153.00402832 151.81640625 154.00219727 C152.02015663 157.32912675 152 160.66683723 152 164 C108.77 164 65.54 164 21 164 C21 176.87 21 189.74 21 203 C65.55 203 110.1 203 156 203 C159 242 159 242 159 250 C106.53 250 54.06 250 0 250 C0 167.5 0 85 0 0 Z " fill="#F10B0B" transform="translate(0,0)"/>
<path d="M0 0 C52.47 0 104.94 0 159 0 C159 12.87 159 25.74 159 39 C106.53 39 54.06 39 0 39 C0 26.13 0 13.26 0 0 Z " fill="#F5F1F0" transform="translate(21,164)"/>
<path d="M0 0 C47.85 0 95.7 0 145 0 C145 12.87 145 25.74 145 39 C97.15 39 49.3 39 0 39 C0 26.13 0 13.26 0 0 Z " fill="#F4F0EF" transform="translate(85,20)"/>
<path d="M0 0 C5.37567475 1.79189158 8.91772958 5.33141451 12 10 C14.20627021 16.77830006 13.31973204 22.66607196 10.28125 28.94921875 C7.96416308 32.65797068 4.91807766 35.04096117 1 37 C-4.96099289 37.86570436 -9.35967856 37.05928786 -14.26953125 33.53125 C-18.14291866 30.10378304 -19.71210622 27.17719674 -20.375 22.1640625 C-20.63834489 15.6298173 -19.98422366 10.31656854 -16 5 C-10.74014322 0.11584728 -6.99451145 -0.62725737 0 0 Z " fill="#1A1F25" transform="translate(220,96)"/>
<path d="M0 0 C18.75 0 18.75 0 24.4375 5.25 C26.48046228 8.84561362 26.57325731 10.91554166 26 15 C24.125 18.4375 24.125 18.4375 22 21 C21.34 21 20.68 21 20 21 C22.31 25.95 24.62 30.9 27 36 C20 36 20 36 18.29296875 34.390625 C17.92816406 33.68421875 17.56335938 32.9778125 17.1875 32.25 C16.80980469 31.55390625 16.43210938 30.8578125 16.04296875 30.140625 C15.34553478 28.70918748 14.69415539 27.25442173 14.08984375 25.78125 C13.73019531 25.1934375 13.37054688 24.605625 13 24 C9.43793339 23.18129815 9.43793339 23.18129815 6 23 C6 27.29 6 31.58 6 36 C4.02 36 2.04 36 0 36 C0 24.12 0 12.24 0 0 Z " fill="#1B1E23" transform="translate(239,96)"/>
<path d="M0 0 C0.33 0 0.66 0 1 0 C1 1.98 1 3.96 1 6 C1.58007812 5.95359375 2.16015625 5.9071875 2.7578125 5.859375 C6.99359218 5.66366241 9.58295935 5.80637398 13.5 7.625 C16.44830323 10.42588807 16.81830834 12.00278343 17 16 C14.125 16.1875 14.125 16.1875 11 16 C10.34 15.01 9.68 14.02 9 13 C5.43230448 12.26393501 5.43230448 12.26393501 2 12 C2 14.97 2 17.94 2 21 C2.65226563 21.08636719 3.30453125 21.17273438 3.9765625 21.26171875 C10.04714917 22.23766852 14.0089578 23.16873839 18 28 C19.09050793 32.20867906 18.49570761 35.12297884 16.375 38.875 C12.13922254 42.66490614 7.6668161 43.47185302 2.02734375 43.3203125 C-1.66062248 42.73762805 -3.97230843 41.17993793 -7 39 C-8.85758514 36.33476915 -9 35.29052817 -9 32 C-6.25 31.75 -6.25 31.75 -3 32 C-0.75 33.9375 -0.75 33.9375 1 36 C1.66 36.33 2.32 36.66 3 37 C2.67 33.37 2.34 29.74 2 26 C0.35 25.67 -1.3 25.34 -3 25 C-6.55047235 22.31742089 -7.84946388 20.93666918 -8.5625 16.5 C-7.91249932 12.45555135 -6.95994621 10.79550476 -4 8 C-1.75 7.1875 -1.75 7.1875 0 7 C0 4.69 0 2.38 0 0 Z " fill="#201E24" transform="translate(146,90)"/>
<path d="M0 0 C2.31 0 4.62 0 7 0 C7.33 4.95 7.66 9.9 8 15 C9.216875 13.63875 10.43375 12.2775 11.6875 10.875 C12.42355469 10.05902344 13.15960938 9.24304688 13.91796875 8.40234375 C15.59583727 6.46634161 17.0388577 4.53130186 18.5 2.4375 C21.24945185 -0.24321555 21.69175286 -0.35597681 25.3125 -0.375 C27.1378125 -0.189375 27.1378125 -0.189375 29 0 C24.93866463 5.59363406 20.6208599 10.85963514 16 16 C18.98949998 21.60531246 22.56091028 26.57784663 26.390625 31.64453125 C28 34 28 34 28 36 C24.83984375 36.4375 24.83984375 36.4375 21 36 C18.68668535 33.99607162 17.1788087 31.58011682 15.5625 29 C15.11712891 28.33226563 14.67175781 27.66453125 14.21289062 26.9765625 C13.12033222 25.33185092 12.0571836 23.6676699 11 22 C10.01 22.66 9.02 23.32 8 24 C7.41518879 26.88595946 7.41518879 26.88595946 7.3125 30.125 C7.24675781 31.22070312 7.18101563 32.31640625 7.11328125 33.4453125 C7.07589844 34.28835937 7.03851563 35.13140625 7 36 C4.69 36 2.38 36 0 36 C0 24.12 0 12.24 0 0 Z " fill="#281A1A" transform="translate(58,96)"/>
<path d="M0 0 C2.60278932 1.73519288 4.09741488 3.03429312 5.625 5.75 C5.625 6.74 5.625 7.73 5.625 8.75 C2.8125 8.9375 2.8125 8.9375 -0.375 8.75 C-0.82875 8.255 -1.2825 7.76 -1.75 7.25 C-3.80890518 5.34947214 -4.74858019 5.51951362 -7.5 5.5 C-11.1525907 5.30755249 -11.1525907 5.30755249 -12.375 6.75 C-12.41563832 8.41617115 -12.417721 10.08388095 -12.375 11.75 C-11.24320313 12.14832031 -10.11140625 12.54664062 -8.9453125 12.95703125 C-7.46335217 13.49166251 -5.98159157 14.02684766 -4.5 14.5625 C-3.38044922 14.95405273 -3.38044922 14.95405273 -2.23828125 15.35351562 C-1.16513672 15.74506836 -1.16513672 15.74506836 -0.0703125 16.14453125 C0.9194458 16.49801636 0.9194458 16.49801636 1.92919922 16.85864258 C3.625 17.75 3.625 17.75 5.625 20.75 C6.29299205 27.65258449 6.29299205 27.65258449 3.875 31.625 C-0.44258344 35.7027177 -4.0384541 36.19012059 -9.83203125 36.0703125 C-13.88123795 35.56027418 -16.11025406 34.19855945 -19.375 31.75 C-21.23258514 29.08476915 -21.375 28.04052817 -21.375 24.75 C-19.065 24.75 -16.755 24.75 -14.375 24.75 C-14.045 25.74 -13.715 26.73 -13.375 27.75 C-11.14609005 28.86445498 -9.84444894 28.91480286 -7.375 28.9375 C-6.323125 28.95876953 -6.323125 28.95876953 -5.25 28.98046875 C-3.12975062 28.91512323 -3.12975062 28.91512323 -1.375 26.75 C-1.375 25.43 -1.375 24.11 -1.375 22.75 C-1.931875 22.57984375 -2.48875 22.4096875 -3.0625 22.234375 C-17.00357143 17.80714286 -17.00357143 17.80714286 -20.375 12.75 C-20.83181807 8.63863735 -20.83231782 6.48497507 -18.625 2.9375 C-13.21473525 -2.32247961 -6.89700136 -2.55444495 0 0 Z " fill="#271B1B" transform="translate(46.375,97.25)"/>
<path d="M0 0 C7.59 0 15.18 0 23 0 C23 1.65 23 3.3 23 5 C17.39 5 11.78 5 6 5 C6 8.3 6 11.6 6 15 C11.28 15 16.56 15 22 15 C22 16.65 22 18.3 22 20 C16.72 20 11.44 20 6 20 C6 23.3 6 26.6 6 30 C11.61 30 17.22 30 23 30 C23 31.65 23 33.3 23 35 C15.41 35 7.82 35 0 35 C0 23.45 0 11.9 0 0 Z " fill="#1B1C1C" transform="translate(271,97)"/>
<path d="M0 0 C3.58867947 0.07177359 4.13774084 0.39726919 7.125 2.8125 C11.01753081 7.76663012 10.68449766 12.29602892 10.1875 18.4375 C8.9277794 21.52381546 8.03302001 22.82522689 5.375 24.75 C2.42117076 25.67834633 0.271718 25.81515935 -2.8125 25.4375 C-6.7277244 23.03497593 -8.6963209 20.90221641 -9.8125 16.4375 C-10.40095418 10.25873114 -9.84083345 7.41367661 -5.8125 2.4375 C-3.8125 0.4375 -3.8125 0.4375 0 0 Z " fill="#0063F8" transform="translate(215.8125,101.5625)"/>
<path d="M0 0 C4.32222013 1.66994869 6.25055251 5.29185585 8.75 9.0625 C10.008125 8.753125 11.26625 8.44375 12.5625 8.125 C26.625 5 26.625 5 30.75 7.0625 C30.75 8.7125 30.75 10.3625 30.75 12.0625 C30.29625 11.5675 29.8425 11.0725 29.375 10.5625 C27.87364481 8.83640663 27.87364481 8.83640663 25.75 9.0625 C26.08 9.825625 26.41 10.58875 26.75 11.375 C27.75 14.0625 27.75 14.0625 27.75 17.0625 C24.75 16.0625 24.75 16.0625 23.3125 13.5625 C22.00447976 10.90377915 22.00447976 10.90377915 19.5625 10.25 C18.964375 10.188125 18.36625 10.12625 17.75 10.0625 C18.224375 10.784375 18.69875 11.50625 19.1875 12.25 C20.69152903 14.95725226 21.31599182 17.02444275 21.75 20.0625 C17.74352249 18.7270075 16.99255364 16.53484113 14.75 13.0625 C14.09 12.7325 13.43 12.4025 12.75 12.0625 C12.9665625 12.60519531 13.183125 13.14789063 13.40625 13.70703125 C13.6846875 14.42246094 13.963125 15.13789063 14.25 15.875 C14.5284375 16.58269531 14.806875 17.29039062 15.09375 18.01953125 C15.75 20.0625 15.75 20.0625 15.75 23.0625 C12.1992584 21.87891947 11.97033217 21.20985674 10.19140625 18.0625 C9.48854492 16.8559375 9.48854492 16.8559375 8.77148438 15.625 C7.79978296 13.91834371 6.83102426 12.21000855 5.86523438 10.5 C5.39537109 9.695625 4.92550781 8.89125 4.44140625 8.0625 C4.02060791 7.32 3.59980957 6.5775 3.16625977 5.8125 C1.47111731 3.71789888 0.37412748 3.42063762 -2.25 3.0625 C0.4640527 10.10951402 4.49533222 16.09995428 8.63085938 22.38671875 C9.15873047 23.20269531 9.68660156 24.01867187 10.23046875 24.859375 C10.71410889 25.59510742 11.19774902 26.33083984 11.69604492 27.08886719 C12.75 29.0625 12.75 29.0625 12.75 32.0625 C9.75 31.0625 9.75 31.0625 8.5625 29 C8.294375 28.360625 8.02625 27.72125 7.75 27.0625 C6.76 27.0625 5.77 27.0625 4.75 27.0625 C5.04812863 31.23630085 5.93575789 34.36410118 8.75 37.546875 C12.59524943 40.46085308 17.20151749 42.03010335 21.66796875 43.765625 C24.75 45.0625 24.75 45.0625 26.75 47.0625 C26.75 48.0525 26.75 49.0425 26.75 50.0625 C25.76 50.0625 24.77 50.0625 23.75 50.0625 C23.42 49.4025 23.09 48.7425 22.75 48.0625 C20.53095156 47.11315875 18.31575444 46.23411756 16.0625 45.375 C8.45195004 42.30660126 4.07217648 38.57480898 0.75 31.0625 C0.625 28.3125 0.625 28.3125 0.75 26.0625 C2.07 25.4025 3.39 24.7425 4.75 24.0625 C3.45966095 21.79090311 2.16778598 19.52020375 0.875 17.25 C0.51019531 16.60740234 0.14539063 15.96480469 -0.23046875 15.30273438 C-1.83083901 12.49481202 -3.45642866 9.75285702 -5.25 7.0625 C-5 3.9375 -5 3.9375 -4.25 1.0625 C-2.25 0.0625 -2.25 0.0625 0 0 Z " fill="#233044" transform="translate(220.25,169.9375)"/>
<path d="M0 0 C9.57 0 19.14 0 29 0 C29 1.98 29 3.96 29 6 C25.37 6 21.74 6 18 6 C18 15.9 18 25.8 18 36 C15.69 36 13.38 36 11 36 C11 26.1 11 16.2 11 6 C7.37 6 3.74 6 0 6 C0 4.02 0 2.04 0 0 Z " fill="#19222E" transform="translate(168,96)"/>
<path d="M0 0 C2.31 0 4.62 0 7 0 C8.33858524 2.28874173 9.67101014 4.58069656 11 6.875 C11.3815625 7.52597656 11.763125 8.17695312 12.15625 8.84765625 C15 13.7734375 15 13.7734375 15 16 C15.66 16 16.32 16 17 16 C17.20625 15.21625 17.4125 14.4325 17.625 13.625 C19.49190838 8.70315062 21.54626112 4.02286515 25 0 C28.875 -0.625 28.875 -0.625 32 0 C30.3050672 4.70505937 27.90289284 8.91900973 25.4375 13.25 C25.02564453 13.9821875 24.61378906 14.714375 24.18945312 15.46875 C21.13862607 20.86137393 21.13862607 20.86137393 20 22 C19.76472227 24.34987262 19.58613583 26.70556039 19.4375 29.0625 C19.35371094 30.35285156 19.26992187 31.64320312 19.18359375 32.97265625 C19.09271484 34.47119141 19.09271484 34.47119141 19 36 C17.02 36 15.04 36 13 36 C13.06703125 35.22140625 13.1340625 34.4428125 13.203125 33.640625 C13.36959714 21.59914049 7.61985599 13.5598702 1.08569336 3.84082031 C0 2 0 2 0 0 Z " fill="#251B1B" transform="translate(89,96)"/>
<path d="M0 0 C4.95 0 9.9 0 15 0 C14.70703125 2.47395833 14.4140625 4.94791667 14.12109375 7.421875 C14.00543324 9.88432451 14.26361305 11.66538064 15 14 C14.01 14.33 13.02 14.66 12 15 C11.67 14.34 11.34 13.68 11 13 C8.47266765 12.34444881 8.47266765 12.34444881 6 12 C6 12.66 6 13.32 6 14 C4.68 14 3.36 14 2 14 C1.65980848 12.60582227 1.32818221 11.20955342 1 9.8125 C0.814375 9.03519531 0.62875 8.25789062 0.4375 7.45703125 C0 5 0 5 0 0 Z " fill="#262C33" transform="translate(200,181)"/>
<path d="M0 0 C1.588125 -0.061875 3.17625 -0.12375 4.8125 -0.1875 C6.15248047 -0.23970703 6.15248047 -0.23970703 7.51953125 -0.29296875 C10 0 10 0 11.80078125 1.35546875 C13.50731102 3.69569361 13.42408618 5.1727588 13 8 C11.9375 9.8125 11.9375 9.8125 10 11 C6.3125 11.1875 6.3125 11.1875 3 11 C3 13.31 3 15.62 3 18 C2.01 17.67 1.02 17.34 0 17 C0 11.39 0 5.78 0 0 Z " fill="#F2934E" transform="translate(85,175)"/>
<path d="M0 0 C9 0 9 0 12 2 C12.34406131 5.16536405 12.41617943 7.23700438 10.875 10.0625 C9.69460607 12.10070585 9.69460607 12.10070585 10.875 14.75 C11.24625 15.4925 11.6175 16.235 12 17 C11.01 16.67 10.02 16.34 9 16 C7.8125 13.4375 7.8125 13.4375 7 11 C5.35 11 3.7 11 2 11 C2 13.31 2 15.62 2 18 C1.34 18 0.68 18 0 18 C0 12.06 0 6.12 0 0 Z " fill="#F2771E" transform="translate(141,175)"/>
<path d="M0 0 C0.66 0 1.32 0 2 0 C2.20496094 0.78246094 2.40992187 1.56492187 2.62109375 2.37109375 C2.89050781 3.38300781 3.15992187 4.39492188 3.4375 5.4375 C3.83775391 6.95150391 3.83775391 6.95150391 4.24609375 8.49609375 C4.75978077 10.91752001 4.75978077 10.91752001 6 12 C6.99 8.37 7.98 4.74 9 1 C10.32 1 11.64 1 13 1 C14.13764351 5.26616316 15 8.56486311 15 13 C15.66 13 16.32 13 17 13 C17.12375 11.783125 17.2475 10.56625 17.375 9.3125 C17.78891306 5.93520941 18.54573451 3.10243305 20 0 C20.66 0 21.32 0 22 0 C21.21450457 5.81266619 19.59317541 11.36877624 18 17 C16.68 17.33 15.36 17.66 14 18 C13.66127487 16.58461283 13.32925376 15.16762037 13 13.75 C12.814375 12.96109375 12.62875 12.1721875 12.4375 11.359375 C12 9 12 9 12 5 C11.34 5 10.68 5 10 5 C9.95101562 5.60328125 9.90203125 6.2065625 9.8515625 6.828125 C9.77679688 7.62734375 9.70203125 8.4265625 9.625 9.25 C9.55539063 10.03890625 9.48578125 10.8278125 9.4140625 11.640625 C8.98492887 14.085877 8.21399362 15.84836903 7 18 C6.01 17.67 5.02 17.34 4 17 C2.83203125 14.19921875 2.83203125 14.19921875 1.8125 10.6875 C1.46832031 9.53636719 1.12414062 8.38523437 0.76953125 7.19921875 C0 4 0 4 0 0 Z " fill="#F27C27" transform="translate(96,30)"/>
<path d="M0 0 C1.588125 -0.061875 3.17625 -0.12375 4.8125 -0.1875 C6.15248047 -0.23970703 6.15248047 -0.23970703 7.51953125 -0.29296875 C10 0 10 0 11.796875 1.32421875 C13.6795709 3.94654518 13.4557692 5.87472551 13 9 C11.5625 10.875 11.5625 10.875 9 12 C5.95209387 12.23606846 3.06696813 12.13530742 0 12 C0 8.04 0 4.08 0 0 Z " fill="#0162F4" transform="translate(245,102)"/>
<path d="M0 0 C0.99 0 1.98 0 3 0 C3.83764268 1.95649397 4.66999059 3.91525556 5.5 5.875 C6.19609375 7.51082031 6.19609375 7.51082031 6.90625 9.1796875 C8 12 8 12 8 14 C8.66 14 9.32 14 10 14 C10.19335938 13.32453125 10.38671875 12.6490625 10.5859375 11.953125 C10.84632813 11.06109375 11.10671875 10.1690625 11.375 9.25 C11.63023437 8.36828125 11.88546875 7.4865625 12.1484375 6.578125 C12.9209934 4.23919428 13.83625676 2.16557438 15 0 C15.99 0 16.98 0 18 0 C18 5.94 18 11.88 18 18 C17.34 18 16.68 18 16 18 C15.67 14.37 15.34 10.74 15 7 C13.35 10.63 11.7 14.26 10 18 C9.01 18 8.02 18 7 18 C5.68 14.37 4.36 10.74 3 7 C2.67 10.63 2.34 14.26 2 18 C1.34 18 0.68 18 0 18 C0 12.06 0 6.12 0 0 Z " fill="#F27B25" transform="translate(185,30)"/>
<path d="M0 0 C1.6953125 1.23828125 1.6953125 1.23828125 3 3 C3.1796875 5.19140625 3.1796875 5.19140625 2.875 7.5625 C2.78992188 8.34753906 2.70484375 9.13257813 2.6171875 9.94140625 C2 12 2 12 -1 14 C-4.09008561 13.84549572 -5.53571484 13.43226549 -7.8125 11.3125 C-9.35606595 8.30660842 -9.42599916 6.33699345 -9 3 C-6.79086995 -0.68188342 -4.01844539 -0.50230567 0 0 Z " fill="#F5EEE8" transform="translate(77,177)"/>
<path d="M0 0 C3.5 -0.375 3.5 -0.375 7 0 C9.71232939 4.06849409 9.30699887 6.16476784 9 11 C7 13 7 13 3.5 13.3125 C1.7675 13.1578125 1.7675 13.1578125 0 13 C-2.45811625 9.31282562 -2.31118164 7.35654296 -2 3 C-1.34 2.01 -0.68 1.02 0 0 Z " fill="#F5F3F0" transform="translate(170,33)"/>
<path d="M0 0 C3.33581133 0.98838854 4.35160864 1.33008122 6.375 4 C7.3905337 8.99304068 7.08381017 12.9045661 4.3125 17.1875 C1.375 19 1.375 19 -2.25 19.125 C-5.625 18 -5.625 18 -7.5625 15.9375 C-8.93487633 12.14328309 -9.46570234 8.97932442 -8.625 5 C-5.9573351 1.03892181 -4.82598436 0 0 0 Z M-4.625 3 C-7.08311625 6.68717438 -6.93618164 8.64345704 -6.625 13 C-5.635 14.485 -5.635 14.485 -4.625 16 C-1.125 16.41666667 -1.125 16.41666667 2.375 16 C4.98204898 13.39295102 4.61405333 11.52661759 4.640625 7.97265625 C4.47882514 5.68047674 4.47882514 5.68047674 2.375 3 C-1.125 2.5 -1.125 2.5 -4.625 3 Z " fill="#F2893D" transform="translate(174.625,30)"/>
<path d="M0 0 C0.66 0 1.32 0 2 0 C2 2.64 2 5.28 2 8 C4.97 8 7.94 8 11 8 C11 5.36 11 2.72 11 0 C11.99 0 12.98 0 14 0 C14 5.94 14 11.88 14 18 C13.01 18 12.02 18 11 18 C11 15.36 11 12.72 11 10 C8.03 10 5.06 10 2 10 C2 12.64 2 15.28 2 18 C1.34 18 0.68 18 0 18 C0 12.06 0 6.12 0 0 Z " fill="#F2924C" transform="translate(49,175)"/>
<path d="M0 0 C4.10702321 1.41878983 5.40047675 2.35789629 7.4375 6.1875 C8.1890662 10.09254499 8.07661388 13.19048234 5.875 16.625 C2.62007152 18.71149261 0.29771246 19.1875 -3.5625 19.1875 C-6.35404809 17.57134058 -7.25358009 16.18817308 -8.19921875 13.125 C-8.79750702 9.87558113 -9.03798047 7.3250131 -7.74609375 4.234375 C-5.44187857 0.97957601 -3.9534804 0.20807792 0 0 Z M-5.4375 4.3125 C-7.12541147 7.12568579 -7.01401041 8.96242565 -6.5625 12.1875 C-4.68480858 15.03670053 -4.68480858 15.03670053 -2.5625 17.1875 C0.37841587 17.00334568 0.37841587 17.00334568 3.4375 16.1875 C5.35099587 13.83911871 5.44191897 12.14419412 5.75 9.125 C5.6522578 6.24729353 5.6522578 6.24729353 4.3125 4.3125 C1.04302691 2.35081614 -2.16802691 2.35081614 -5.4375 4.3125 Z " fill="#F2812F" transform="translate(74.5625,173.8125)"/>
<path d="M0 0 C0 1.65 0 3.3 0 5 C-0.680625 4.2575 -0.680625 4.2575 -1.375 3.5 C-2.87635519 1.77390663 -2.87635519 1.77390663 -5 2 C-4.67 2.763125 -4.34 3.52625 -4 4.3125 C-3 7 -3 7 -3 10 C-6 9 -6 9 -7.4375 6.5 C-8.74552024 3.84127915 -8.74552024 3.84127915 -11.1875 3.1875 C-11.785625 3.125625 -12.38375 3.06375 -13 3 C-12.525625 3.721875 -12.05125 4.44375 -11.5625 5.1875 C-10.05847097 7.89475226 -9.43400818 9.96194275 -9 13 C-13.02550319 11.6581656 -13.88285636 9.5772427 -16 6 C-16 5.34 -16 4.68 -16 4 C-17.98 4 -19.96 4 -22 4 C-15.58241813 -0.27838791 -7.48577598 -1.871444 0 0 Z " fill="#203453" transform="translate(251,177)"/>
<path d="M0 0 C3.63 0 7.26 0 11 0 C11 0.99 11 1.98 11 3 C8.03 3 5.06 3 2 3 C2 4.65 2 6.3 2 8 C4.64 8 7.28 8 10 8 C10 8.66 10 9.32 10 10 C7.36 10 4.72 10 2 10 C2 11.98 2 13.96 2 16 C4.97 16 7.94 16 11 16 C11 16.66 11 17.32 11 18 C7.37 18 3.74 18 0 18 C0 12.06 0 6.12 0 0 Z " fill="#F28738" transform="translate(207,30)"/>
<path d="M0 0 C0.66 0 1.32 0 2 0 C2 2.64 2 5.28 2 8 C5.3 8 8.6 8 12 8 C12 5.36 12 2.72 12 0 C12.66 0 13.32 0 14 0 C14 5.94 14 11.88 14 18 C13.34 18 12.68 18 12 18 C12 15.36 12 12.72 12 10 C8.7 10 5.4 10 2 10 C2 12.64 2 15.28 2 18 C1.34 18 0.68 18 0 18 C0 12.06 0 6.12 0 0 Z " fill="#F2812F" transform="translate(108,175)"/>
<path d="M0 0 C2.01822917 0.06510417 4.03645833 0.13020833 6.0546875 0.1953125 C6.7146875 1.5153125 7.3746875 2.8353125 8.0546875 4.1953125 C5.0846875 3.8653125 2.1146875 3.5353125 -0.9453125 3.1953125 C-0.9453125 4.1853125 -0.9453125 5.1753125 -0.9453125 6.1953125 C-0.09646484 6.50275391 -0.09646484 6.50275391 0.76953125 6.81640625 C1.50300781 7.08582031 2.23648438 7.35523438 2.9921875 7.6328125 C3.72308594 7.89964844 4.45398438 8.16648438 5.20703125 8.44140625 C7.0546875 9.1953125 7.0546875 9.1953125 8.0546875 10.1953125 C8.34647058 12.96725179 8.41835066 14.60941075 6.9296875 17.0078125 C4.20992096 18.73033131 2.20882501 18.52386849 -0.9453125 18.1953125 C-1.9353125 17.5353125 -2.9253125 16.8753125 -3.9453125 16.1953125 C-3.9453125 15.2053125 -3.9453125 14.2153125 -3.9453125 13.1953125 C-3.2853125 13.1953125 -2.6253125 13.1953125 -1.9453125 13.1953125 C-1.6153125 13.8553125 -1.2853125 14.5153125 -0.9453125 15.1953125 C0.7046875 15.1953125 2.3546875 15.1953125 4.0546875 15.1953125 C4.3846875 13.8753125 4.7146875 12.5553125 5.0546875 11.1953125 C4.48878906 10.99035156 3.92289063 10.78539062 3.33984375 10.57421875 C2.60636719 10.30480469 1.87289062 10.03539062 1.1171875 9.7578125 C0.38628906 9.49097656 -0.34460937 9.22414062 -1.09765625 8.94921875 C-2.9453125 8.1953125 -2.9453125 8.1953125 -3.9453125 7.1953125 C-4.1328125 4.7578125 -4.1328125 4.7578125 -3.9453125 2.1953125 C-1.9453125 0.1953125 -1.9453125 0.1953125 0 0 Z " fill="#F2812F" transform="translate(36.9453125,174.8046875)"/>
<path d="M0 0 C3.63 0 7.26 0 11 0 C11 0.66 11 1.32 11 2 C8.36 2 5.72 2 3 2 C3 3.98 3 5.96 3 8 C5.64 8 8.28 8 11 8 C11 8.66 11 9.32 11 10 C8.36 10 5.72 10 3 10 C3 11.98 3 13.96 3 16 C5.64 16 8.28 16 11 16 C11 16.33 11 16.66 11 17 C7.37 17 3.74 17 0 17 C0 11.39 0 5.78 0 0 Z " fill="#F2883C" transform="translate(156,175)"/>
<path d="M0 0 C4.57722635 1.35621521 4.57722635 1.35621521 6.375 4 C6.375 4.66 6.375 5.32 6.375 6 C5.818125 5.690625 5.26125 5.38125 4.6875 5.0625 C2.16592898 3.90394034 0.14783771 3.21329521 -2.625 3 C-4.60078739 3.89061215 -4.60078739 3.89061215 -5.625 6 C-6.00527273 10.65391157 -6.00527273 10.65391157 -4.625 15 C1.1724423 15.24428343 1.1724423 15.24428343 6.375 13 C5.3125 15.4375 5.3125 15.4375 3.375 18 C0 19.1875 0 19.1875 -3.625 19 C-6.69267474 16.45448266 -8.18387606 14.84339597 -9.10546875 10.9921875 C-9.37497912 7.1607698 -8.69338126 5.10153581 -6.5625 1.9375 C-3.625 0 -3.625 0 0 0 Z " fill="#F27A23" transform="translate(156.625,30)"/>
<path d="M0 0 C3.63 0 7.26 0 11 0 C11 0.66 11 1.32 11 2 C8.03 2 5.06 2 2 2 C2 3.98 2 5.96 2 8 C4.64 8 7.28 8 10 8 C10 8.33 10 8.66 10 9 C7.36 9 4.72 9 2 9 C2 11.31 2 13.62 2 16 C4.97 16 7.94 16 11 16 C11 16.66 11 17.32 11 18 C7.37 18 3.74 18 0 18 C0 12.06 0 6.12 0 0 Z " fill="#F2802E" transform="translate(126,175)"/>
<path d="M0 0 C5.41139241 0.60126582 5.41139241 0.60126582 7.9375 2.3125 C9 4 9 4 8.875 6.0625 C8 8 8 8 5 10 C3.35 10 1.7 10 0 10 C0 6.7 0 3.4 0 0 Z " fill="#0262F5" transform="translate(149,117)"/>
<path d="M0 0 C3.3 0 6.6 0 10 0 C10 0.33 10 0.66 10 1 C7.36 1 4.72 1 2 1 C2 3.31 2 5.62 2 8 C4.64 8 7.28 8 10 8 C10 8.33 10 8.66 10 9 C7.36 9 4.72 9 2 9 C2 11.31 2 13.62 2 16 C4.97 16 7.94 16 11 16 C11 16.33 11 16.66 11 17 C7.37 17 3.74 17 0 17 C0 11.39 0 5.78 0 0 Z " fill="#F26C0C" transform="translate(121,31)"/>
<path d="M0 0 C0.66 0 1.32 0 2 0 C1.21450457 5.81266619 -0.40682459 11.36877624 -2 17 C-3.32 17.33 -4.64 17.66 -6 18 C-6.625 15.1875 -6.625 15.1875 -7 12 C-6.34 11.01 -5.68 10.02 -5 9 C-5 10.32 -5 11.64 -5 13 C-4.34 13 -3.68 13 -3 13 C-2.814375 11.1746875 -2.814375 11.1746875 -2.625 9.3125 C-2.21108694 5.93520941 -1.45426549 3.10243305 0 0 Z " fill="#F2893D" transform="translate(116,30)"/>
<path d="M0 0 C2.31 0 4.62 0 7 0 C7.625 2.375 7.625 2.375 8 5 C6 7 6 7 2.875 7.125 C1.451875 7.063125 1.451875 7.063125 0 7 C0 4.69 0 2.38 0 0 Z " fill="#F5E8DE" transform="translate(143,177)"/>
<path d="M0 0 C0.66 0 1.32 0 2 0 C2 5.28 2 10.56 2 16 C4.64 16 7.28 16 10 16 C10 16.66 10 17.32 10 18 C6.7 18 3.4 18 0 18 C0 12.06 0 6.12 0 0 Z " fill="#F2893D" transform="translate(136,30)"/>
<path d="M0 0 C0.66 0.66 1.32 1.32 2 2 C4.66242821 2.46290221 4.66242821 2.46290221 7.625 2.625 C9.12933594 2.73714844 9.12933594 2.73714844 10.6640625 2.8515625 C11.43492187 2.90054688 12.20578125 2.94953125 13 3 C13.33 4.32 13.66 5.64 14 7 C13.01 7.33 12.02 7.66 11 8 C10.67 7.34 10.34 6.68 10 6 C7.47266765 5.34444881 7.47266765 5.34444881 5 5 C5 5.66 5 6.32 5 7 C3.68 7 2.36 7 1 7 C0.67 4.69 0.34 2.38 0 0 Z " fill="#1A3E74" transform="translate(201,188)"/>
<path d="M0 0 C1.99954746 -0.04254356 4.00041636 -0.04080783 6 0 C7 1 7 1 7.125 3.5 C7 6 7 6 6 7 C4.00041636 7.04080783 1.99954746 7.04254356 0 7 C0 4.69 0 2.38 0 0 Z " fill="#F5F2F0" transform="translate(88,177)"/>
<path d="M0 0 C0.99 0 1.98 0 3 0 C3 5.94 3 11.88 3 18 C2.34 18 1.68 18 1 18 C0.67 14.37 0.34 10.74 0 7 C-0.33 7 -0.66 7 -1 7 C-0.67 4.69 -0.34 2.38 0 0 Z " fill="#F28536" transform="translate(200,30)"/>
<path d="M0 0 C0.66 0 1.32 0 2 0 C2 2.64 2 5.28 2 8 C4.64 8 7.28 8 10 8 C10 8.33 10 8.66 10 9 C7.36 9 4.72 9 2 9 C2 11.97 2 14.94 2 18 C1.34 18 0.68 18 0 18 C0 12.06 0 6.12 0 0 Z " fill="#F2751A" transform="translate(108,175)"/>
<path d="M0 0 C0.66 0 1.32 0 2 0 C2 2.64 2 5.28 2 8 C4.64 8 7.28 8 10 8 C10 8.33 10 8.66 10 9 C7.36 9 4.72 9 2 9 C2 11.97 2 14.94 2 18 C1.34 18 0.68 18 0 18 C0 12.06 0 6.12 0 0 Z " fill="#F27419" transform="translate(49,175)"/>
<path d="M0 0 C-0.99 0.33 -1.98 0.66 -3 1 C-2.525625 1.721875 -2.05125 2.44375 -1.5625 3.1875 C-0.05847097 5.89475226 0.56599182 7.96194275 1 11 C-3.02550319 9.6581656 -3.88285636 7.5772427 -6 4 C-6 3.34 -6 2.68 -6 2 C-7.98 2 -9.96 2 -12 2 C-7.57703297 -0.94864468 -5.15145854 -1.28786464 0 0 Z " fill="#1E385F" transform="translate(241,179)"/>
<path d="M0 0 C0.66 0 1.32 0 2 0 C2.50636607 1.74816858 3.00484619 3.49862263 3.5 5.25 C3.7784375 6.22453125 4.056875 7.1990625 4.34375 8.203125 C5 11 5 11 5 15 C5.66 15 6.32 15 7 15 C7 15.99 7 16.98 7 18 C6.01 17.67 5.02 17.34 4 17 C2.83203125 14.19921875 2.83203125 14.19921875 1.8125 10.6875 C1.46832031 9.53636719 1.12414062 8.38523437 0.76953125 7.19921875 C0 4 0 4 0 0 Z " fill="#F28434" transform="translate(96,30)"/>
<path d="M0 0 C0.33 0 0.66 0 1 0 C1.25174825 5.53846154 1.25174825 5.53846154 -0.125 8.0625 C-1.30539393 10.10070585 -1.30539393 10.10070585 -0.125 12.75 C0.24625 13.4925 0.6175 14.235 1 15 C0.01 14.67 -0.98 14.34 -2 14 C-3.1875 11.4375 -3.1875 11.4375 -4 9 C-5.65 9 -7.3 9 -9 9 C-9 8.67 -9 8.34 -9 8 C-6 7 -3 6 0 5 C0 3.35 0 1.7 0 0 Z " fill="#F28231" transform="translate(152,177)"/>
<path d="M0 0 C6.52307692 0.49230769 6.52307692 0.49230769 8.9375 3.0625 C9.288125 3.701875 9.63875 4.34125 10 5 C9.01 5 8.02 5 7 5 C6.67 4.67 6.34 4.34 6 4 C4.00047242 3.95653201 1.99960012 3.960008 0 4 C-0.99 4 -1.98 4 -3 4 C-2.01 2.68 -1.02 1.36 0 0 Z " fill="#F2893C" transform="translate(71,174)"/>
<path d="M0 0 C0.33 0 0.66 0 1 0 C1.0825 1.27875 1.165 2.5575 1.25 3.875 C1.45869931 6.05333418 1.45869931 6.05333418 2 8 C3.92064793 9.5899433 3.92064793 9.5899433 6 10 C4.68 10 3.36 10 2 10 C2 12.31 2 14.62 2 17 C1.34 17 0.68 17 0 17 C0 11.39 0 5.78 0 0 Z " fill="#F27C26" transform="translate(86,176)"/>
<path d="M0 0 C0.66 0 1.32 0 2 0 C1.98839844 0.68707031 1.97679687 1.37414063 1.96484375 2.08203125 C1.95582031 2.98308594 1.94679687 3.88414063 1.9375 4.8125 C1.92589844 5.70582031 1.91429687 6.59914063 1.90234375 7.51953125 C1.88990033 10.13413791 1.88990033 10.13413791 3 13 C2.01 13 1.02 13 0 13 C-1.29721449 9.10835652 -1.13033993 6.10570774 -1 2 C-0.67 1.34 -0.34 0.68 0 0 Z " fill="#F27A24" transform="translate(167,33)"/>
<path d="M0 0 C-1.5625 1.5625 -1.5625 1.5625 -4 3 C-7.75 2.6875 -7.75 2.6875 -11 2 C-11 1.34 -11 0.68 -11 0 C-3.375 -1.125 -3.375 -1.125 0 0 Z " fill="#F28B40" transform="translate(180,46)"/>
<path d="M0 0 C3.29714793 0.32971479 4.6226839 0.6226839 7 3 C7 3.99 7 4.98 7 6 C6.01 6 5.02 6 4 6 C3.67 5.34 3.34 4.68 3 4 C1.35636866 3.27840576 -0.31050386 2.60648579 -2 2 C-1.34 1.34 -0.68 0.68 0 0 Z " fill="#203656" transform="translate(240,214)"/>
<path d="M0 0 C2.97 0.495 2.97 0.495 6 1 C6 1.66 6 2.32 6 3 C6.66 3 7.32 3 8 3 C10 6 10 6 10 9 C5.98587091 7.66195697 5.26994046 5.47584633 3 2 C2.01 1.34 1.02 0.68 0 0 Z " fill="#223147" transform="translate(238,178)"/>
<path d="M0 0 C0.66 0.33 1.32 0.66 2 1 C-2.30769231 5.92307692 -2.30769231 5.92307692 -5.8125 6.3125 C-6.8953125 6.1578125 -6.8953125 6.1578125 -8 6 C-7.67 5.01 -7.34 4.02 -7 3 C-4 1.875 -4 1.875 -1 1 C-0.67 0.67 -0.34 0.34 0 0 Z " fill="#F2893D" transform="translate(161,43)"/>
<path d="M0 0 C0.99 0.33 1.98 0.66 3 1 C3 4.3 3 7.6 3 11 C2.01 11 1.02 11 0 11 C0 7.37 0 3.74 0 0 Z " fill="#F27D28" transform="translate(178,33)"/>
<path d="M0 0 C4 6 4 6 4 10 C1 9 1 9 -0.6875 5.9375 C-1.120625 4.968125 -1.55375 3.99875 -2 3 C-1.34 3 -0.68 3 0 3 C0 2.01 0 1.02 0 0 Z " fill="#1F375C" transform="translate(232,183)"/>
<path d="M0 0 C3.3 0 6.6 0 10 0 C10.33 1.32 10.66 2.64 11 4 C10.01 4.33 9.02 4.66 8 5 C7.67 3.68 7.34 2.36 7 1 C4.69 1 2.38 1 0 1 C0 0.67 0 0.34 0 0 Z " fill="#174284" transform="translate(204,191)"/>
<path d="M0 0 C0.33 0 0.66 0 1 0 C1.33 2.64 1.66 5.28 2 8 C0.68 7.34 -0.64 6.68 -2 6 C-1.125 1.125 -1.125 1.125 0 0 Z " fill="#CB0F13" transform="translate(146,102)"/>
<path d="M0 0 C-0.99 0.66 -1.98 1.32 -3 2 C-3.33 2.99 -3.66 3.98 -4 5 C-4.99 4.67 -5.98 4.34 -7 4 C-7 3.01 -7 2.02 -7 1 C-3.375 -1.125 -3.375 -1.125 0 0 Z " fill="#272B32" transform="translate(236,181)"/>
<path d="M0 0 C0.33 0 0.66 0 1 0 C1.125 3.375 1.125 3.375 1 7 C0.34 7.66 -0.32 8.32 -1 9 C-1.66 8.67 -2.32 8.34 -3 8 C-1.125 2.25 -1.125 2.25 0 0 Z " fill="#F2893D" transform="translate(104,37)"/>
<path d="M0 0 C2 3 2 3 2 7 C2.66 7 3.32 7 4 7 C4 7.99 4 8.98 4 10 C3.01 9.67 2.02 9.34 1 9 C0.67 6.03 0.34 3.06 0 0 Z " fill="#F27011" transform="translate(99,38)"/>
</svg>
